<?xml version="1.0" encoding="UTF-8" standalone="no"?><!DOCTYPE svg PUBLIC "-//W3C//DTD SVG 1.1//EN" "http://www.w3.org/Graphics/SVG/1.1/DTD/svg11.dtd"><svg width="100%" height="100%" viewBox="0 0 512 512" version="1.1" xmlns="http://www.w3.org/2000/svg" xmlns:xlink="http://www.w3.org/1999/xlink" xml:space="preserve" xmlns:serif="http://www.serif.com/" style="fill-rule:evenodd;clip-rule:evenodd;stroke-linejoin:round;stroke-miterlimit:2;"><g><path d="M110.933,213.333c-23.562,0 -42.666,19.105 -42.666,42.667c0,23.562 19.104,42.667 42.666,42.667c23.563,0 42.667,-19.105 42.667,-42.667c-0.029,-23.554 -19.113,-42.637 -42.667,-42.667Zm0,68.267c-14.137,0 -25.6,-11.463 -25.6,-25.6c0,-14.137 11.463,-25.6 25.6,-25.6c14.138,0 25.6,11.463 25.6,25.6c0,14.137 -11.462,25.6 -25.6,25.6Z" style="fill:#2196f3;fill-rule:nonzero;"/><path d="M281.6,119.467c23.562,0 42.667,-19.104 42.667,-42.667c0,-23.562 -19.105,-42.667 -42.667,-42.667c-23.563,0 -42.667,19.105 -42.667,42.667c0.029,23.554 19.113,42.638 42.667,42.667Zm0,-68.267c14.137,0 25.6,11.463 25.6,25.6c0,14.138 -11.463,25.6 -25.6,25.6c-14.138,0 -25.6,-11.462 -25.6,-25.6c0,-14.137 11.462,-25.6 25.6,-25.6Z" style="fill:#2196f3;fill-rule:nonzero;"/><circle cx="443.733" cy="227.875" r="28.125" style="fill:#ebebeb;"/><path d="M102.4,358.4c-4.713,0 -8.533,3.821 -8.533,8.533l0,51.2c0,4.713 3.82,8.534 8.533,8.534c4.712,0 8.533,-3.821 8.533,-8.534l0,-51.2c0,-4.712 -3.821,-8.533 -8.533,-8.533Z" style="fill:#2196f3;fill-rule:nonzero;"/><path d="M198.767,139.033l-34.134,34.134c-2.216,2.141 -3.108,5.316 -2.325,8.3c0.779,2.983 3.109,5.312 6.092,6.091c2.983,0.784 6.158,-0.108 8.3,-2.325l34.133,-34.133c3.234,-3.35 3.188,-8.671 -0.104,-11.962c-3.292,-3.292 -8.612,-3.338 -11.962,-0.105Z" style="fill:#2196f3;fill-rule:nonzero;"/><path d="M486.4,259.617l0,-29.217c-0.067,-21.442 -16.067,-39.487 -37.342,-42.129l-91.121,-103.2c0.3,-2.75 0.455,-5.508 0.463,-8.271c0,-42.417 -34.383,-76.8 -76.8,-76.8c-42.417,0 -76.8,34.383 -76.8,76.8c0,1.358 0.137,2.679 0.204,4.013l-98.621,98.616c-30.933,1.763 -57.758,21.988 -67.971,51.242c-10.212,29.254 -1.795,61.779 21.321,82.408l0,130.654l-51.2,0c-4.712,0 -8.533,3.821 -8.533,8.534l0,51.2c0,4.712 3.821,8.533 8.533,8.533l324.267,0c4.712,0 8.533,-3.821 8.533,-8.533l0,-51.2c0,-4.713 -3.821,-8.534 -8.533,-8.534l-170.667,0l0,-130.654c19.588,-17.242 28.875,-43.383 24.559,-69.121l90.558,-90.579c1.45,0.084 2.883,0.221 4.35,0.221c4.342,-0.025 8.671,-0.421 12.946,-1.179l106.521,83.954l0,23.258c-15.525,6.779 -25.571,22.096 -25.6,39.034l0,85.333c-0.017,2.967 1.508,5.725 4.025,7.292c2.52,1.566 5.67,1.712 8.32,0.387l22.134,-17.067c2.908,-1.45 4.737,-4.429 4.721,-7.679l0,-59.733l58.133,0l0,59.733c-0.017,3.25 1.812,6.229 4.721,7.679l22.133,17.067c2.65,1.325 5.8,1.179 8.321,-0.387c2.517,-1.567 4.042,-4.325 4.025,-7.292l0,-85.333c-0.021,-16.946 -10.071,-32.271 -25.6,-39.05Zm-204.8,-242.55c32.992,0 59.733,26.741 59.733,59.733c0,32.992 -26.741,59.733 -59.733,59.733c-32.992,0 -59.733,-26.741 -59.733,-59.733c0.037,-32.975 26.758,-59.696 59.733,-59.733Zm-170.667,298.666c-32.991,0 -59.733,-26.741 -59.733,-59.733c0,-32.992 26.742,-59.733 59.733,-59.733c32.992,0 59.734,26.741 59.734,59.733c-0.038,32.975 -26.759,59.696 -59.734,59.733Z" style="fill:#2196f3;fill-rule:nonzero;"/><path d="M443.733,204.475c14.094,0 25.537,11.443 25.537,25.537c0,14.094 -11.443,25.537 -25.537,25.537c-14.094,0 -25.537,-11.443 -25.537,-25.537c0,-14.094 11.443,-25.537 25.537,-25.537Zm0,10.951c8.05,0 14.586,6.536 14.586,14.586c0,8.05 -6.536,14.586 -14.586,14.586c-8.05,0 -14.586,-6.536 -14.586,-14.586c0,-8.05 6.536,-14.586 14.586,-14.586Z" style="fill:#ebebeb;"/><circle cx="110.933" cy="256" r="34.38" style="fill:#2196f3;"/><circle cx="281.6" cy="76.8" r="34.38" style="fill:#2196f3;"/></g></svg>